<?xml version="1.0" encoding="utf-8"?>
<!-- Generator: Adobe Illustrator 21.0.0, SVG Export Plug-In . SVG Version: 6.00 Build 0)  -->
<svg version="1.1" id="Layer_1" xmlns="http://www.w3.org/2000/svg" xmlns:xlink="http://www.w3.org/1999/xlink" x="0px" y="0px"
	 viewBox="0 0 500 500" style="enable-background:new 0 0 500 500;" xml:space="preserve">
<style type="text/css">
	.st0{fill:#FFFFFF;}
</style>
<g>
	<rect class="st0" width="500" height="500"/>
	<g>
		<path d="M221.8,218.8c2,2.6,2.9,5.6,2.9,8.9c0,8.8-8.7,24.2-26.1,46.2c-16.5,20.9-26.3,31.3-29.6,31.3c-1,0-1.6-1.3-2-4
			c-0.2-1.5-0.3-4-0.3-7.6c0-4.4-0.4-11.8-1.3-22.2c-0.8-10.4-1.7-18.1-2.4-23.1c-1.6-11-3.2-18.1-4.8-21.3
			c-1.6-3.2-4.5-4.8-8.9-4.8c-0.7,0-1.5,0-2.5,0.1c-0.9,0.1-2,0.2-3.3,0.3v-2.5c2-0.4,6.1-1.3,12.3-2.6c6.2-1.4,9.6-2.1,10-2.2
			l3.2-1c0.9-0.3,1.6,0.2,2.1,1.5c0.5,1.3,1.2,3.6,2,7.1c2.5,11.3,4.3,22.5,5.6,33.5c0.8,6.8,1.6,17,2.3,30.4l3.2-3.4
			c6.7-7.1,13.4-15.5,20.1-25.3c6.7-9.8,10.1-16.7,10.1-20.7c0-2-1.5-4.4-4.4-7.3s-4.4-5.4-4.4-7.8c0-2.1,0.7-3.9,2.2-5.3
			s3.3-2.1,5.4-2.1C217,214.9,219.8,216.2,221.8,218.8z"/>
		<path d="M273.7,214.5c0.4,0.2,0.5,0.5,0.4,0.8l-19.7,69.7c-0.9,3.7-1.4,5.9-1.4,6.6c0,1,0.2,1.8,0.6,2.5c0.3,0.8,1.1,1.2,2.4,1.2
			c2.2,0,5.1-1.9,8.8-5.8c2.1-2.3,4.8-5.5,7.9-9.8l2.5,2.1l-1,1.4c-4.9,6.8-8.9,11.8-12.1,14.7c-5,4.7-9.9,7-14.6,7
			c-2.8,0-5.1-1.2-7-3.5s-2.8-5.1-2.8-8.3c0-1.9,0.1-3.5,0.4-4.9c0.3-1.4,0.7-3.5,1.5-6.2l13.9-50.2c0.2-0.8,0.4-1.5,0.5-2.1
			c0.1-0.6,0.2-1.3,0.2-2c0-2.3-0.9-3.8-2.6-4.3c-1.7-0.6-5.1-0.8-10.2-0.8v-3.2c5.4-0.6,9.2-1.2,11.6-1.5c2.4-0.4,4.7-0.7,7.1-1.1
			c3.1-0.5,6-1.1,8.8-1.8C271.8,214.5,273.3,214.3,273.7,214.5z M264.5,190.1c-1.9-2.1-2.8-4.6-2.8-7.5c0-3,0.9-5.5,2.8-7.6
			c1.9-2.1,4.2-3.1,6.8-3.1c2.7,0,5,1,6.9,3.1c1.9,2.1,2.9,4.6,2.9,7.6c0,3-1,5.5-2.9,7.6c-1.9,2.1-4.2,3.1-6.9,3.1
			C268.6,193.2,266.4,192.2,264.5,190.1z"/>
		<path d="M291,274h3.2c1.4,7.9,3.1,13.6,5.1,17.3c3.6,6.7,8.9,10.1,16,10.1c4,0,7.3-1.4,10-4.2c2.7-2.8,4.1-6.5,4.1-11.1
			c0-2.9-0.3-5.2-1-7c-0.7-1.8-1.5-3.5-2.6-5l-8.1-12c-4.9-7.3-7.9-12.2-9.2-14.6c-1.9-3.7-2.8-7.4-2.8-11.1c0-5.7,2-10.7,6.1-15
			c4.1-4.3,9.8-6.5,17.3-6.5c3.2,0,6.8,0.6,10.9,1.8c4.1,1.2,6.9,1.8,8.4,1.8c1.6,0,2.8-0.3,3.6-1c0.8-0.6,1.5-1.5,2.1-2.6h2.8
			l-4,27.7h-3.2c-0.8-6.3-2.1-11.1-3.8-14.3c-3.1-5.9-8.1-8.9-14.8-8.9c-2.9,0-5.4,0.9-7.7,2.7c-2.2,1.8-3.4,4.4-3.4,7.9
			c0,2.7,0.5,5,1.5,7c1,2,3.3,5.6,6.9,10.7l6.9,10c3.6,5.1,6.1,9.3,7.6,12.6c1.5,3.3,2.2,6.8,2.2,10.5c0,7-3,13-9,17.8
			c-6,4.8-13.1,7.2-21.4,7.2c-2.7,0-6.5-0.6-11.4-1.7c-4.9-1.1-7.8-1.7-8.6-1.7c-1.3,0-2.3,0.3-2.9,0.9c-0.6,0.6-1.2,1.5-1.7,2.6
			h-3.2L291,274z"/>
	</g>
</g>
</svg>
